<?xml version="1.0" encoding="UTF-8"?>
<svg version="1.1" xmlns="http://www.w3.org/2000/svg" width="223" height="226">
<path d="M0 0 C73.59 0 147.18 0 223 0 C223 74.58 223 149.16 223 226 C149.41 226 75.82 226 0 226 C0 151.42 0 76.84 0 0 Z " fill="#FDFDFD" transform="translate(0,0)"/>
<path d="M0 0 C13.2 0 26.4 0 40 0 C40 17.82 40 35.64 40 54 C46.6 54 53.2 54 60 54 C60 64.56 60 75.12 60 86 C53.4 86 46.8 86 40 86 C40 101.51 40 117.02 40 133 C26.8 133 13.6 133 0 133 C0 89.11 0 45.22 0 0 Z " fill="#323232" transform="translate(53,35)"/>
<path d="M0 0 C3.38101081 1.3315981 5.62170587 3.4904534 8.1640625 6 C9.21108771 6.99997159 10.26062505 7.99731863 11.3125 8.9921875 C11.84327148 9.49459961 12.37404297 9.99701172 12.92089844 10.51464844 C16.3154226 13.63056349 19.94703634 16.45661201 23.5546875 19.3203125 C24.53695312 20.15175781 24.53695312 20.15175781 25.5390625 21 C25.5390625 21.33 25.5390625 21.66 25.5390625 22 C14.9790625 22 4.4190625 22 -6.4609375 22 C-6.4609375 31.24 -6.4609375 40.48 -6.4609375 50 C-3.1609375 50 0.1390625 50 3.5390625 50 C3.5390625 45.38 3.5390625 40.76 3.5390625 36 C14.7590625 36 25.9790625 36 37.5390625 36 C34.03076652 40.20995518 31.54876426 43.01629296 27.4140625 46.25 C23.47083751 49.39928708 19.68423528 52.63881917 15.9765625 56.0625 C8.54135909 62.83915682 8.54135909 62.83915682 5.2265625 65.6875 C4.46730469 66.35136719 3.70804688 67.01523438 2.92578125 67.69921875 C-0.32222564 69.46940909 -1.88682251 68.81792866 -5.4609375 68 C-7.6400614 67.18988024 -9.79474771 66.31209774 -11.92578125 65.3828125 C-12.82037804 64.99607864 -12.82037804 64.99607864 -13.73304749 64.60153198 C-15.62430077 63.78227285 -17.51137779 62.95386603 -19.3984375 62.125 C-20.6605384 61.57620411 -21.92290622 61.02802166 -23.18554688 60.48046875 C-25.52245517 59.46618491 -27.85736211 58.44772436 -30.19116211 57.42626953 C-33.60793181 55.93588137 -37.03466218 54.46840371 -40.4609375 53 C-40.4609375 42.44 -40.4609375 31.88 -40.4609375 21 C-18.41941501 8.28373702 -18.41941501 8.28373702 -9.8359375 4.18359375 C-7.3734241 3.02480039 -7.3734241 3.02480039 -4.9609375 1.28515625 C-2.4609375 0 -2.4609375 0 0 0 Z " fill="#DD1642" transform="translate(155.4609375,68)"/>
<path d="M0 0 C13.53 0 27.06 0 41 0 C41 9.57 41 19.14 41 29 C38.793125 30.093125 36.58625 31.18625 34.3125 32.3125 C29.31055329 34.79777409 24.34038737 37.3350947 19.40234375 39.9453125 C18.46414795 40.44119873 17.52595215 40.93708496 16.55932617 41.44799805 C14.70718839 42.42999966 12.8570363 43.41575695 11.0090332 44.40551758 C10.155271 44.85822021 9.30150879 45.31092285 8.421875 45.77734375 C7.28637207 46.38437134 7.28637207 46.38437134 6.12792969 47.00366211 C4 48 4 48 0 49 C0 32.83 0 16.66 0 0 Z " fill="#343434" transform="translate(115,36)"/>
<path d="M0 0 C3.69287406 0.73857481 6.24963598 1.39780194 9.58984375 2.85546875 C10.45061523 3.22800781 11.31138672 3.60054688 12.19824219 3.984375 C13.5541748 4.57992187 13.5541748 4.57992187 14.9375 5.1875 C16.81636512 6.00400091 18.69527151 6.82040684 20.57421875 7.63671875 C21.49380371 8.03810059 22.41338867 8.43948242 23.36083984 8.85302734 C25.72136523 9.878906 28.08674969 10.89144769 30.45703125 11.89453125 C31.43071655 12.30699097 31.43071655 12.30699097 32.42407227 12.7277832 C34.14193773 13.45429858 35.86002399 14.18029183 37.578125 14.90625 C40 16 40 16 41 17 C41.08758003 18.99964982 41.10696576 21.0023611 41.09765625 23.00390625 C41.09515869 24.09775635 41.09266113 25.19160645 41.09008789 26.31860352 C41.08098389 27.71908936 41.07187988 29.1195752 41.0625 30.5625 C41.041875 34.996875 41.02125 39.43125 41 44 C27.47 44 13.94 44 0 44 C0 29.48 0 14.96 0 0 Z " fill="#353535" transform="translate(115,124)"/>
<path d="M0 0 C0.66 0 1.32 0 2 0 C2 10.56 2 21.12 2 32 C3.98 32.33 5.96 32.66 8 33 C10.32219825 33.97169998 12.61267182 35.02106306 14.875 36.125 C16.19210589 36.75386748 17.50983734 37.38142612 18.828125 38.0078125 C19.8480957 38.49556152 19.8480957 38.49556152 20.88867188 38.99316406 C24.45378287 40.69327019 28.02975237 42.36458348 31.625 44 C32.28741699 44.31469238 32.94983398 44.62938477 33.63232422 44.95361328 C37.48964023 46.69113412 39.97242573 47.49911426 44 46 C46.03310758 44.8548367 46.03310758 44.8548367 47.8125 43.4375 C48.71935547 42.75494141 48.71935547 42.75494141 49.64453125 42.05859375 C50.09183594 41.70925781 50.53914063 41.35992187 51 41 C51 42.65 51 44.3 51 46 C50.38125 46.28875 49.7625 46.5775 49.125 46.875 C46.86674235 47.93720042 46.86674235 47.93720042 45 50 C39.43333805 50.55389671 35.25285217 49.23459541 30.25 47 C28.76443237 46.35912123 27.27875059 45.71850701 25.79296875 45.078125 C25.01872559 44.73974609 24.24448242 44.40136719 23.44677734 44.05273438 C20.89061291 42.95293583 18.31845917 41.90150682 15.73828125 40.859375 C14.44325684 40.33150391 14.44325684 40.33150391 13.12207031 39.79296875 C11.44012424 39.10761262 9.75592723 38.42775001 8.06933594 37.75390625 C6.92319824 37.28017578 6.92319824 37.28017578 5.75390625 36.796875 C5.07658447 36.52198242 4.3992627 36.24708984 3.70141602 35.96386719 C2 35 2 35 0 32 C-0.17112002 29.52943177 -0.23253124 27.17496079 -0.1953125 24.70703125 C-0.1924826 24.00100266 -0.18965271 23.29497406 -0.18673706 22.56755066 C-0.17555464 20.31569367 -0.1504542 18.06423648 -0.125 15.8125 C-0.11496767 14.28451096 -0.10584226 12.75651567 -0.09765625 11.22851562 C-0.07562172 7.48552337 -0.04110567 3.74282944 0 0 Z " fill="#EBDADE" transform="translate(113,89)"/>
<path d="M0 0 C2.05459372 5.59306069 2.05459372 8.40693931 0 14 C-3.60093965 14.92117061 -5.38627771 15.28640374 -8.8125 13.6875 C-11 12 -11 12 -12 10 C-12.38080215 6.49662019 -12.40245078 4.63721374 -10.5 1.625 C-6.86748926 -0.73613198 -4.28156703 -0.2854378 0 0 Z " fill="#D2D2D2" transform="translate(148,183)"/>
<path d="M0 0 C13.2 0 26.4 0 40 0 C40 0.33 40 0.66 40 1 C27.46 1 14.92 1 2 1 C2.09678712 7.23003413 2.19942387 13.4593793 2.31738281 19.68896484 C2.35572842 21.8093469 2.39057133 23.92979526 2.421875 26.05029297 C2.46740466 29.09366598 2.52541839 32.13658032 2.5859375 35.1796875 C2.59748871 36.13181122 2.60903992 37.08393494 2.62094116 38.06491089 C2.64081085 38.94567291 2.66068054 39.82643494 2.68115234 40.73388672 C2.69447601 41.51110077 2.70779968 42.28831482 2.7215271 43.08908081 C2.84039576 45.2388947 2.84039576 45.2388947 5 47 C4.34 47.66 3.68 48.32 3 49 C2.01 49 1.02 49 0 49 C0 32.83 0 16.66 0 0 Z " fill="#3B3B3B" transform="translate(115,36)"/>
<path d="M0 0 C0.825 0.4125 1.65 0.825 2.5 1.25 C-0.23440727 3.07293818 -1.4706956 3.50664671 -4.5 4.25 C-10.53885853 6.91172684 -16.31808177 10.1343017 -22.07421875 13.3515625 C-23.0585791 13.89901123 -24.04293945 14.44645996 -25.05712891 15.01049805 C-27.05020062 16.1226353 -29.03825287 17.24381924 -31.02099609 18.37426758 C-31.94348145 18.88884521 -32.8659668 19.40342285 -33.81640625 19.93359375 C-34.64599854 20.40337646 -35.47559082 20.87315918 -36.33032227 21.35717773 C-38.5 22.25 -38.5 22.25 -41.5 21.25 C-41.5 20.59 -41.5 19.93 -41.5 19.25 C-40.675 18.84910156 -39.85 18.44820312 -39 18.03515625 C-31.59377073 14.38990278 -24.34238677 10.5589544 -17.18359375 6.44750977 C-15.29653003 5.36755487 -13.4019671 4.30347898 -11.5 3.25 C-10.79649414 2.85893066 -10.09298828 2.46786133 -9.36816406 2.06494141 C-8.6665918 1.69159668 -7.96501953 1.31825195 -7.2421875 0.93359375 C-6.60909668 0.59255615 -5.97600586 0.25151855 -5.32373047 -0.09985352 C-3.5 -0.75 -3.5 -0.75 0 0 Z " fill="#F4DFE4" transform="translate(156.5,65.75)"/>
<path d="M0 0 C2.06298828 -0.34057617 2.06298828 -0.34057617 4.5703125 -0.29296875 C5.46621094 -0.28330078 6.36210937 -0.27363281 7.28515625 -0.26367188 C8.69087891 -0.2259668 8.69087891 -0.2259668 10.125 -0.1875 C11.06988281 -0.17396484 12.01476562 -0.16042969 12.98828125 -0.14648438 C15.32608779 -0.11106306 17.66276237 -0.06167271 20 0 C17.17219324 3.77485525 14.18028453 6.68279451 10.5 9.625 C9.5615625 10.38039063 8.623125 11.13578125 7.65625 11.9140625 C5.45825431 13.64013558 3.2457694 15.33685946 1 17 C0.34 15.68 -0.32 14.36 -1 13 C0.65 13 2.3 13 4 13 C3.938125 11.8553125 3.938125 11.8553125 3.875 10.6875 C4 8 4 8 6 5 C6.66 5 7.32 5 8 5 C8.33 4.01 8.66 3.02 9 2 C9.99 2.33 10.98 2.66 12 3 C12 2.34 12 1.68 12 1 C11.40832031 1.144375 10.81664062 1.28875 10.20703125 1.4375 C6.07470059 2.40822694 2.2770238 3.27593702 -2 3 C-1.34 2.01 -0.68 1.02 0 0 Z " fill="#D01F48" transform="translate(172,105)"/>
<path d="M0 0 C1.33617352 0.97528737 2.6688751 1.95533319 4 2.9375 C5.11375 3.75541016 5.11375 3.75541016 6.25 4.58984375 C6.8275 5.05519531 7.405 5.52054687 8 6 C8 6.33 8 6.66 8 7 C-2.56 7 -13.12 7 -24 7 C-24 16.24 -24 25.48 -24 35 C-24.66 35 -25.32 35 -26 35 C-26.02465881 31.03069011 -26.04284023 27.06140966 -26.05493164 23.09204102 C-26.05997057 21.74079614 -26.06680177 20.38955674 -26.07543945 19.03833008 C-26.08752419 17.09979566 -26.09269828 15.161222 -26.09765625 13.22265625 C-26.10289307 12.05484619 -26.10812988 10.88703613 -26.11352539 9.68383789 C-26 7 -26 7 -25 6 C-23.14825294 5.84213692 -21.2909089 5.74892644 -19.43359375 5.68359375 C-17.7465332 5.62075195 -17.7465332 5.62075195 -16.02539062 5.55664062 C-14.24938477 5.49766602 -14.24938477 5.49766602 -12.4375 5.4375 C-11.24962891 5.39431641 -10.06175781 5.35113281 -8.83789062 5.30664062 C-5.89205216 5.20016454 -2.9461257 5.09815159 0 5 C0 4.01 0 3.02 0 2 C0 1.34 0 0.68 0 0 Z " fill="#BB294B" transform="translate(173,83)"/>
<path d="M0 0 C2.31 0 4.62 0 7 0 C7.66 0.66 8.32 1.32 9 2 C8.875 5 8.875 5 8 8 C5.9375 9.375 5.9375 9.375 4 10 C4 11.32 4 12.64 4 14 C2.35 14 0.7 14 -1 14 C-0.67 9.38 -0.34 4.76 0 0 Z " fill="#646464" transform="translate(185,188)"/>
<path d="M0 0 C0.66 0 1.32 0 2 0 C2 9.9 2 19.8 2 30 C5.96 30.99 5.96 30.99 10 32 C9.67 32.99 9.34 33.98 9 35 C6.03 34.01 3.06 33.02 0 32 C0 21.44 0 10.88 0 0 Z " fill="#BA2F4F" transform="translate(115,89)"/>
<path d="M0 0 C5.61 0 11.22 0 17 0 C17 0.33 17 0.66 17 1 C16.00097656 1.13277344 15.00195312 1.26554687 13.97265625 1.40234375 C12.68230469 1.57894531 11.39195312 1.75554687 10.0625 1.9375 C8.77472656 2.11152344 7.48695313 2.28554687 6.16015625 2.46484375 C3.14533687 2.66162423 3.14533687 2.66162423 2 4 C1.91299658 5.63472882 1.89298937 7.27314055 1.90234375 8.91015625 C1.90556641 9.89951172 1.90878906 10.88886719 1.91210938 11.90820312 C1.92048828 12.94912109 1.92886719 13.99003906 1.9375 15.0625 C1.94201172 16.10728516 1.94652344 17.15207031 1.95117188 18.22851562 C1.96300087 20.8190666 1.97948311 23.40950559 2 26 C4.31 26.33 6.62 26.66 9 27 C9 22.71 9 18.42 9 14 C9.33 14 9.66 14 10 14 C10 18.62 10 23.24 10 28 C6.7 28 3.4 28 0 28 C0 18.76 0 9.52 0 0 Z " fill="#F7CDD8" transform="translate(149,90)"/>
<path d="M0 0 C1.65 0 3.3 0 5 0 C4.67 1.98 4.34 3.96 4 6 C5.98 6 7.96 6 10 6 C10 4.35 10 2.7 10 1 C9.34 0.67 8.68 0.34 8 0 C9.65 0 11.3 0 13 0 C12.67 4.62 12.34 9.24 12 14 C11.34 14 10.68 14 10 14 C10 12.02 10 10.04 10 8 C8.02 8 6.04 8 4 8 C4 9.98 4 11.96 4 14 C3.01 13.67 2.02 13.34 1 13 C1.33 9.04 1.66 5.08 2 1 C1.34 0.67 0.68 0.34 0 0 Z " fill="#3D3D3D" transform="translate(38,183)"/>
<path d="M0 0 C2 0.6875 2 0.6875 4 2.6875 C3.9375 5.6875 3.9375 5.6875 3 8.6875 C0.4375 10.0625 0.4375 10.0625 -2 10.6875 C-3.5625 9.625 -3.5625 9.625 -5 7.6875 C-4.8125 4.0625 -4.8125 4.0625 -4 0.6875 C-2 -0.3125 -2 -0.3125 0 0 Z " fill="#999999" transform="translate(166,187.3125)"/>
<path d="M0 0 C0 2.97 0 5.94 0 9 C-2.31 9 -4.62 9 -7 9 C-7.33 6.03 -7.66 3.06 -8 0 C-5.13822943 -1.43088528 -3.06624227 -0.59991697 0 0 Z " fill="#7B7B7B" transform="translate(107,188)"/>
<path d="M0 0 C0.33 0.99 0.66 1.98 1 3 C-1.24664262 4.31855095 -3.49697306 5.62993972 -5.75 6.9375 C-6.70132813 7.49727539 -6.70132813 7.49727539 -7.671875 8.06835938 C-10.76291632 9.85536764 -13.51467668 11.24885273 -17 12 C-17.33 11.01 -17.66 10.02 -18 9 C-12 6 -6 3 0 0 Z " fill="#F3DFE3" transform="translate(133,76)"/>
<path d="M0 0 C0.721875 0.185625 1.44375 0.37125 2.1875 0.5625 C5.37456241 1.22366086 5.37456241 1.22366086 10 0 C8.68 3.3 7.36 6.6 6 10 C5.34 10 4.68 10 4 10 C2.74335022 7.09399739 2 5.20395416 2 2 C1.34 2 0.68 2 0 2 C0 1.34 0 0.68 0 0 Z " fill="#929292" transform="translate(76,187)"/>
<path d="M0 0 C0.62109375 1.828125 0.62109375 1.828125 1 4 C-0.97030178 6.79655737 -2.50115712 8.70674813 -5.9765625 9.38671875 C-9.75047784 9.47859309 -12.83611769 9.10925487 -16 7 C-16 6.34 -16 5.68 -16 5 C-16.66 4.67 -17.32 4.34 -18 4 C-17.29875 4.144375 -16.5975 4.28875 -15.875 4.4375 C-14.451875 4.7159375 -14.451875 4.7159375 -13 5 C-12.05125 5.309375 -11.1025 5.61875 -10.125 5.9375 C-5.83956705 6.02320866 -4.33052855 4.20801306 -1.3203125 1.34765625 C-0.88460937 0.90292969 -0.44890625 0.45820313 0 0 Z " fill="#F6DEE3" transform="translate(163,130)"/>
<path d="M0 0 C2 0.125 2 0.125 4 1 C5.25 3.0625 5.25 3.0625 6 5 C4.02 5 2.04 5 0 5 C0 5.99 0 6.98 0 8 C1.65 8 3.3 8 5 8 C4.67 8.66 4.34 9.32 4 10 C2.35 10 0.7 10 -1 10 C-2.38125018 7.23749964 -2.19079306 5.05268901 -2 2 C-1.34 1.34 -0.68 0.68 0 0 Z " fill="#767676" transform="translate(57,187)"/>
<path d="M0 0 C1.32 0.33 2.64 0.66 4 1 C4.33 3.97 4.66 6.94 5 10 C4.01 9.67 3.02 9.34 2 9 C1.67 8.01 1.34 7.02 1 6 C1 7.32 1 8.64 1 10 C0.01 10 -0.98 10 -2 10 C-1.835 9.2575 -1.67 8.515 -1.5 7.75 C-0.88074304 4.80993422 -0.88074304 4.80993422 -1 1 C-0.67 0.67 -0.34 0.34 0 0 Z " fill="#626262" transform="translate(68,187)"/>
<path d="M0 0 C1.33617352 0.97528737 2.6688751 1.95533319 4 2.9375 C5.11375 3.75541016 5.11375 3.75541016 6.25 4.58984375 C6.8275 5.05519531 7.405 5.52054687 8 6 C8 6.33 8 6.66 8 7 C0.41 7 -7.18 7 -15 7 C-15 6.67 -15 6.34 -15 6 C-10.05 5.67 -5.1 5.34 0 5 C0 4.01 0 3.02 0 2 C0 1.34 0 0.68 0 0 Z " fill="#B81A42" transform="translate(173,83)"/>
<path d="M0 0 C0 3 0 3 -1.57421875 4.6484375 C-2.27160156 5.21820313 -2.96898437 5.78796875 -3.6875 6.375 C-6.96864369 9.11997101 -10.02336286 11.93034295 -13 15 C-13.99 14.67 -14.98 14.34 -16 14 C-14.08539961 12.22688737 -12.16842507 10.45646638 -10.25 8.6875 C-9.44175781 7.93823242 -9.44175781 7.93823242 -8.6171875 7.17382812 C-5.84396048 4.62043007 -3.07809771 2.18903551 0 0 Z " fill="#FEE7EA" transform="translate(184,112)"/>
<path d="M0 0 C-1.51671964 4.55015893 -5.16891053 6.50057264 -9 9 C-8.4 3.6 -8.4 3.6 -6.75 1.125 C-4.41786614 -0.37422891 -2.71628175 -0.22023906 0 0 Z " fill="#CE1F48" transform="translate(170,123)"/>
<path d="M0 0 C-0.33 0.99 -0.66 1.98 -1 3 C-1.33 2.67 -1.66 2.34 -2 2 C-4.45809998 1.7499227 -4.45809998 1.7499227 -7 2 C-9.31686366 3.87644507 -9.31686366 3.87644507 -9.1875 6.9375 C-9.12950232 10.04093079 -9.12950232 10.04093079 -8 13 C-8.99 12.67 -9.98 12.34 -11 12 C-12.42041821 9.15916359 -12.31452272 7.14522722 -12 4 C-8.86279363 -0.96724342 -5.35524469 -0.35701631 0 0 Z " fill="#303030" transform="translate(148,183)"/>
<path d="M0 0 C2.15012808 1.54524571 4.03185612 3.21493927 6 5 C5.01 5.495 5.01 5.495 4 6 C2.9275 5.319375 1.855 4.63875 0.75 3.9375 C-2.38843764 2.03479342 -2.38843764 2.03479342 -6.125 2.6875 C-7.07375 3.120625 -8.0225 3.55375 -9 4 C-10.66088045 4.36106097 -12.32618981 4.70462173 -14 5 C-5.6 -2 -5.6 -2 0 0 Z " fill="#BB284B" transform="translate(158,69)"/>
<path d="M0 0 C0.99 0.33 1.98 0.66 3 1 C3 1.99 3 2.98 3 4 C1.02 4 -0.96 4 -3 4 C-1.68 5.65 -0.36 7.3 1 9 C-0.65 8.67 -2.3 8.34 -4 8 C-4.33 6.02 -4.66 4.04 -5 2 C-3.35 1.67 -1.7 1.34 0 1 C0 0.67 0 0.34 0 0 Z " fill="#545454" transform="translate(93,188)"/>
<path d="M0 0 C0.825 0.4125 1.65 0.825 2.5 1.25 C-0.2508303 3.08388686 -1.43591989 3.54963883 -4.5 4.25 C-6.50382009 4.90509503 -8.50458132 5.56974363 -10.5 6.25 C-10.83 5.26 -11.16 4.27 -11.5 3.25 C-4.60284464 -0.98632385 -4.60284464 -0.98632385 0 0 Z " fill="#ECD4D8" transform="translate(156.5,65.75)"/>
<path d="M0 0 C2.06298828 -0.34057617 2.06298828 -0.34057617 4.5703125 -0.29296875 C5.46621094 -0.28330078 6.36210937 -0.27363281 7.28515625 -0.26367188 C8.69087891 -0.2259668 8.69087891 -0.2259668 10.125 -0.1875 C11.06988281 -0.17396484 12.01476562 -0.16042969 12.98828125 -0.14648438 C15.32608779 -0.11106306 17.66276237 -0.06167271 20 0 C18 2 18 2 15.4609375 2.16015625 C14.44257813 2.12792969 13.42421875 2.09570312 12.375 2.0625 C7.44895814 1.97347515 2.86394415 2.2517009 -2 3 C-1.34 2.01 -0.68 1.02 0 0 Z " fill="#C2183E" transform="translate(172,105)"/>
<path d="M0 0 C1.98 0.495 1.98 0.495 4 1 C3.67 1.66 3.34 2.32 3 3 C2.34 2.67 1.68 2.34 1 2 C0.67 2.66 0.34 3.32 0 4 C2.475 4.99 2.475 4.99 5 6 C4.6875 7.9375 4.6875 7.9375 4 10 C3.01 10.33 2.02 10.66 1 11 C0.34 10.67 -0.32 10.34 -1 10 C-0.67 9.34 -0.34 8.68 0 8 C0.99 8.33 1.98 8.66 3 9 C2.319375 8.443125 1.63875 7.88625 0.9375 7.3125 C0.298125 6.549375 -0.34125 5.78625 -1 5 C-0.75 2.25 -0.75 2.25 0 0 Z " fill="#535353" transform="translate(121,187)"/>
<path d="M0 0 C-0.66 0 -1.32 0 -2 0 C-2 0.99 -2 1.98 -2 3 C-4.8125 4.5625 -4.8125 4.5625 -8 6 C-8.99 5.67 -9.98 5.34 -11 5 C-11 4.34 -11 3.68 -11 3 C-9.73581754 2.30034557 -8.46334598 1.61565237 -7.1875 0.9375 C-6.47980469 0.55464844 -5.77210937 0.17179687 -5.04296875 -0.22265625 C-3 -1 -3 -1 0 0 Z " fill="#F7EBEB" transform="translate(126,82)"/>
<path d="M0 0 C0.66 0.33 1.32 0.66 2 1 C-1.625 4 -1.625 4 -5 4 C-5 4.66 -5 5.32 -5 6 C-5.99 6.33 -6.98 6.66 -8 7 C-8.33 7.66 -8.66 8.32 -9 9 C-10.65 9 -12.3 9 -14 9 C-11.50175511 6.18841591 -8.721524 4.55162169 -5.4375 2.75 C-4.46683594 2.20859375 -3.49617187 1.6671875 -2.49609375 1.109375 C-1.67238281 0.74328125 -0.84867188 0.3771875 0 0 Z " fill="#BB284B" transform="translate(142,74)"/>
<path d="M0 0 C2.97 0.99 5.94 1.98 9 3 C8.67 3.99 8.34 4.98 8 6 C5.03 5.01 2.06 4.02 -1 3 C-0.67 2.01 -0.34 1.02 0 0 Z " fill="#EAD7DB" transform="translate(116,121)"/>
<path d="M0 0 C1.32 0.33 2.64 0.66 4 1 C4 2.65 4 4.3 4 6 C2.68 6.33 1.36 6.66 0 7 C0 4.69 0 2.38 0 0 Z " fill="#F3F3F3" transform="translate(188,189)"/>
<path d="M0 0 C2.31 0.33 4.62 0.66 7 1 C6.34 2.32 5.68 3.64 5 5 C2.5 3.625 2.5 3.625 0 2 C0 1.34 0 0.68 0 0 Z " fill="#DBDBDB" transform="translate(90,192)"/>
<path d="M0 0 C0.8125 1.6875 0.8125 1.6875 1 4 C-1.375 6.75 -1.375 6.75 -4 9 C-4.33 9 -4.66 9 -5 9 C-5.3125 6.75 -5.3125 6.75 -5 4 C-2.5 1.6875 -2.5 1.6875 0 0 Z " fill="#FBEAEB" transform="translate(163,130)"/>
<path d="M0 0 C0.33 0.66 0.66 1.32 1 2 C2.88764903 2.68472665 2.88764903 2.68472665 5.0625 3.125 C5.79597656 3.29257813 6.52945313 3.46015625 7.28515625 3.6328125 C7.85105469 3.75398438 8.41695312 3.87515625 9 4 C8.67 4.99 8.34 5.98 8 7 C2.25 5.125 2.25 5.125 0 4 C0 2.68 0 1.36 0 0 Z " fill="#C2224A" transform="translate(116,117)"/>
<path d="M0 0 C0.78375 0.04125 1.5675 0.0825 2.375 0.125 C0.0625 2.625 0.0625 2.625 -2.625 5.125 C-3.615 5.125 -4.605 5.125 -5.625 5.125 C-4.41988658 1.50965974 -3.92406511 0.18686024 0 0 Z " fill="#C11E44" transform="translate(158.625,131.875)"/>
<path d="M0 0 C2.4375 0.25 2.4375 0.25 5 1 C5.66 1.99 6.32 2.98 7 4 C1.25 3.25 1.25 3.25 -1 1 C-0.67 0.67 -0.34 0.34 0 0 Z " fill="#F3E6EB" transform="translate(131,128)"/>
<path d="M0 0 C0.99 0.99 1.98 1.98 3 3 C1.625 4.5 1.625 4.5 0 6 C-0.66 6 -1.32 6 -2 6 C-2.33 5.01 -2.66 4.02 -3 3 C-2.01 2.01 -1.02 1.02 0 0 Z " fill="#2E2E2C" transform="translate(144,65)"/>
<path d="M0 0 C1.65 0 3.3 0 5 0 C5.33 0.99 5.66 1.98 6 3 C4.02 3 2.04 3 0 3 C0 2.01 0 1.02 0 0 Z " fill="#F0F0F0" transform="translate(57,192)"/>
<path d="M0 0 C0 3 0 3 -2 5.1875 C-2.66 5.785625 -3.32 6.38375 -4 7 C-4.99 6.67 -5.98 6.34 -7 6 C-4.69 4.02 -2.38 2.04 0 0 Z " fill="#FCD7E0" transform="translate(184,112)"/>
</svg>
